  0
SECTION
  2
ENTITIES
999
DXF created from EnergyPlus
999
Program Version,EnergyPlus, Version 26.1.0-6f2e40d102, YMD=2026.07.26 21:35
999
Polygon Action,TRIANGULATE3DFACE
999
Color Scheme,Default
999
Text - True North
  0
TEXT
  8
1
  6
Continuous
 62
  3
 10
      -11.00000
 20
        3.00000
 30
        0.10000
 40
 .25
  1
True North
 41
 0.0
  7
MONOTXT
210
0.0
220
0.0
230
1.0
999
Text - Building Title
  0
TEXT
  8
1
  6
Continuous
 62
  3
 10
      -14.00000
 20
       -1.00000
 30
        0.10000
 40
 .4
  1
Building - Small Office with AirflowNetwork model
 41
 0.0
  7
MONOTXT
210
0.0
220
0.0
230
1.0
999
North Arrow Stem
  0
3DFACE
  8
1
 62
  3
 10
      -10.00000
 20
        3.00000
 30
        0.10000
 11
      -10.00000
 21
        3.00000
 31
        0.00000
 12
      -10.00000
 22
        0.00000
 32
        0.00000
 13
      -10.00000
 23
        0.00000
 33
        0.10000
999
North Arrow Head 1
  0
3DFACE
  8
1
 62
  3
 10
      -10.00000
 20
        3.00000
 30
        0.10000
 11
      -10.00000
 21
        3.00000
 31
        0.00000
 12
      -10.50000
 22
        2.13397
 32
        0.00000
 13
      -10.50000
 23
        2.13397
 33
        0.10000
999
North Arrow Head 2
  0
3DFACE
  8
1
 62
  3
 10
      -10.00000
 20
        3.00000
 30
        0.10000
 11
      -10.00000
 21
        3.00000
 31
        0.00000
 12
       -9.50000
 22
        2.13397
 32
        0.00000
 13
       -9.50000
 23
        2.13397
 33
        0.10000
999
North Arrow Side 1
  0
3DFACE
  8
1
 62
  3
 10
      -10.50000
 20
        4.50000
 30
        0.10000
 11
      -10.50000
 21
        4.50000
 31
        0.00000
 12
      -10.50000
 22
        3.50000
 32
        0.00000
 13
      -10.50000
 23
        3.50000
 33
        0.10000
999
North Arrow Side 2
  0
3DFACE
  8
1
 62
  3
 10
      -10.50000
 20
        4.50000
 30
        0.10000
 11
      -10.50000
 21
        4.50000
 31
        0.00000
 12
       -9.50000
 22
        3.50000
 32
        0.00000
 13
       -9.50000
 23
        3.50000
 33
        0.10000
999
North Arrow Side 3
  0
3DFACE
  8
1
 62
  3
 10
       -9.50000
 20
        4.50000
 30
        0.10000
 11
       -9.50000
 21
        4.50000
 31
        0.00000
 12
       -9.50000
 22
        3.50000
 32
        0.00000
 13
       -9.50000
 23
        3.50000
 33
        0.10000
999
Zone Names
999
Zone=1:WEST_ZONE
999
Zone=2:EAST_ZONE
999
Zone=3:NORTH_ZONE
999
Zone=4:ATTIC_ZONE
999
WEST ZONE:ZN001:WALL001
  0
3DFACE
  8
WEST_ZONE
 62
 43
 10
        0.00000
 20
        0.00000
 30
        3.04800
 11
        0.00000
 21
        0.00000
 31
        0.00000
 12
        6.09600
 22
        0.00000
 32
        0.00000
 13
        6.09600
 23
        0.00000
 33
        3.04800
999
WEST ZONE:ZN001:WALL001:WIN001
  0
3DFACE
  8
WEST_ZONE
 62
143
 10
        0.54800
 20
        0.00000
 30
        2.50000
 11
        0.54800
 21
        0.00000
 31
        0.50000
 12
        5.54800
 22
        0.00000
 32
        0.50000
 13
        5.54800
 23
        0.00000
 33
        2.50000
999
WEST ZONE:ZN001:WALL002
  0
3DFACE
  8
WEST_ZONE
 62
 43
 10
        0.00000
 20
        6.09600
 30
        3.04800
 11
        0.00000
 21
        6.09600
 31
        0.00000
 12
        0.00000
 22
        0.00000
 32
        0.00000
 13
        0.00000
 23
        0.00000
 33
        3.04800
999
WEST ZONE:ZN001:WALL003
  0
3DFACE
  8
WEST_ZONE
 62
 43
 10
        6.09600
 20
        6.09600
 30
        3.04800
 11
        6.09600
 21
        6.09600
 31
        0.00000
 12
        0.00000
 22
        6.09600
 32
        0.00000
 13
        0.00000
 23
        6.09600
 33
        3.04800
999
WEST ZONE:ZN001:WALL003:DOOR001
  0
3DFACE
  8
WEST_ZONE
 62
 45
 10
        3.50000
 20
        6.09600
 30
        2.00000
 11
        3.50000
 21
        6.09600
 31
        0.00000
 12
        2.50000
 22
        6.09600
 32
        0.00000
 13
        2.50000
 23
        6.09600
 33
        2.00000
999
WEST ZONE:ZN001:WALL004
  0
3DFACE
  8
WEST_ZONE
 62
 43
 10
        6.09600
 20
        0.00000
 30
        3.04800
 11
        6.09600
 21
        0.00000
 31
        0.00000
 12
        6.09600
 22
        6.09600
 32
        0.00000
 13
        6.09600
 23
        6.09600
 33
        3.04800
999
WEST ZONE:ZN001:FLR001
  0
3DFACE
  8
WEST_ZONE
 62
  8
 10
        0.00000
 20
        0.00000
 30
        0.00000
 11
        0.00000
 21
        6.09600
 31
        0.00000
 12
        6.09600
 22
        6.09600
 32
        0.00000
 13
        6.09600
 23
        0.00000
 33
        0.00000
999
WEST ZONE:ZN001:CEIL001
  0
3DFACE
  8
WEST_ZONE
 62
 15
 10
        0.00000
 20
        6.09600
 30
        3.04800
 11
        0.00000
 21
        0.00000
 31
        3.04800
 12
        6.09600
 22
        0.00000
 32
        3.04800
 13
        6.09600
 23
        6.09600
 33
        3.04800
999
EAST ZONE:ZN002:WALL001
  0
3DFACE
  8
EAST_ZONE
 62
 43
 10
       12.19200
 20
        6.09600
 30
        3.04800
 11
       12.19200
 21
        6.09600
 31
        0.00000
 12
        9.14400
 22
        6.09600
 32
        0.00000
 13
        9.14400
 23
        6.09600
 33
        3.04800
999
EAST ZONE:ZN002:WALL002
  0
3DFACE
  8
EAST_ZONE
 62
 43
 10
        6.09600
 20
        0.00000
 30
        3.04800
 11
        6.09600
 21
        0.00000
 31
        0.00000
 12
       12.19200
 22
        0.00000
 32
        0.00000
 13
       12.19200
 23
        0.00000
 33
        3.04800
999
EAST ZONE:ZN002:WALL003
  0
3DFACE
  8
EAST_ZONE
 62
 43
 10
       12.19200
 20
        0.00000
 30
        3.04800
 11
       12.19200
 21
        0.00000
 31
        0.00000
 12
       12.19200
 22
        6.09600
 32
        0.00000
 13
       12.19200
 23
        6.09600
 33
        3.04800
999
EAST ZONE:ZN002:WALL004
  0
3DFACE
  8
EAST_ZONE
 62
 43
 10
        6.09600
 20
        6.09600
 30
        3.04800
 11
        6.09600
 21
        6.09600
 31
        0.00000
 12
        6.09600
 22
        0.00000
 32
        0.00000
 13
        6.09600
 23
        0.00000
 33
        3.04800
999
EAST ZONE:ZN002:WALL005
  0
3DFACE
  8
EAST_ZONE
 62
 43
 10
        9.14400
 20
        6.09600
 30
        3.04800
 11
        9.14400
 21
        6.09600
 31
        0.00000
 12
        6.09600
 22
        6.09600
 32
        0.00000
 13
        6.09600
 23
        6.09600
 33
        3.04800
999
EAST ZONE:ZN002:FLR001
  0
3DFACE
  8
EAST_ZONE
 62
  8
 10
        6.09600
 20
        0.00000
 30
        0.00000
 11
        6.09600
 21
        6.09600
 31
        0.00000
 12
       12.19200
 22
        6.09600
 32
        0.00000
 13
       12.19200
 23
        0.00000
 33
        0.00000
999
EAST ZONE:ZN002:CEIL001
  0
3DFACE
  8
EAST_ZONE
 62
 15
 10
        6.09600
 20
        6.09600
 30
        3.04800
 11
        6.09600
 21
        0.00000
 31
        3.04800
 12
       12.19200
 22
        0.00000
 32
        3.04800
 13
       12.19200
 23
        6.09600
 33
        3.04800
999
NORTH ZONE:ZN003:WALL001
  0
3DFACE
  8
NORTH_ZONE
 62
 43
 10
        0.00000
 20
       12.19200
 30
        3.04800
 11
        0.00000
 21
       12.19200
 31
        0.00000
 12
        0.00000
 22
        6.09600
 32
        0.00000
 13
        0.00000
 23
        6.09600
 33
        3.04800
999
NORTH ZONE:ZN003:WALL002
  0
3DFACE
  8
NORTH_ZONE
 62
 43
 10
        9.14400
 20
       12.19200
 30
        3.04800
 11
        9.14400
 21
       12.19200
 31
        0.00000
 12
        0.00000
 22
       12.19200
 32
        0.00000
 13
        0.00000
 23
       12.19200
 33
        3.04800
999
NORTH ZONE:ZN003:WALL002:WIN001
  0
3DFACE
  8
NORTH_ZONE
 62
143
 10
        5.54800
 20
       12.19200
 30
        2.50000
 11
        5.54800
 21
       12.19200
 31
        0.50000
 12
        0.54800
 22
       12.19200
 32
        0.50000
 13
        0.54800
 23
       12.19200
 33
        2.50000
999
NORTH ZONE:ZN003:WALL003
  0
3DFACE
  8
NORTH_ZONE
 62
 43
 10
        9.14400
 20
        6.09600
 30
        3.04800
 11
        9.14400
 21
        6.09600
 31
        0.00000
 12
        9.14400
 22
       12.19200
 32
        0.00000
 13
        9.14400
 23
       12.19200
 33
        3.04800
999
NORTH ZONE:ZN003:WALL004
  0
3DFACE
  8
NORTH_ZONE
 62
 43
 10
        0.00000
 20
        6.09600
 30
        3.04800
 11
        0.00000
 21
        6.09600
 31
        0.00000
 12
        6.09600
 22
        6.09600
 32
        0.00000
 13
        6.09600
 23
        6.09600
 33
        3.04800
999
NORTH ZONE:ZN003:WALL004:DOOR001
  0
3DFACE
  8
NORTH_ZONE
 62
 45
 10
        2.50000
 20
        6.09600
 30
        2.00000
 11
        2.50000
 21
        6.09600
 31
        0.00000
 12
        3.50000
 22
        6.09600
 32
        0.00000
 13
        3.50000
 23
        6.09600
 33
        2.00000
999
NORTH ZONE:ZN003:WALL005
  0
3DFACE
  8
NORTH_ZONE
 62
 43
 10
        6.09600
 20
        6.09600
 30
        3.04800
 11
        6.09600
 21
        6.09600
 31
        0.00000
 12
        9.14400
 22
        6.09600
 32
        0.00000
 13
        9.14400
 23
        6.09600
 33
        3.04800
999
NORTH ZONE:ZN003:FLR001
  0
3DFACE
  8
NORTH_ZONE
 62
  8
 10
        0.00000
 20
        6.09600
 30
        0.00000
 11
        0.00000
 21
       12.19200
 31
        0.00000
 12
        9.14400
 22
       12.19200
 32
        0.00000
 13
        9.14400
 23
        6.09600
 33
        0.00000
999
NORTH ZONE:ZN003:CEIL001
  0
3DFACE
  8
NORTH_ZONE
 62
 15
 10
        0.00000
 20
       12.19200
 30
        3.04800
 11
        0.00000
 21
        6.09600
 31
        3.04800
 12
        9.14400
 22
        6.09600
 32
        3.04800
 13
        9.14400
 23
       12.19200
 33
        3.04800
999
ATTIC ZONE:ZN004:WALL001
  0
3DFACE
  8
ATTIC_ZONE
 62
 43
 10
        0.00000
 20
        0.00000
 30
        3.96240
 11
        0.00000
 21
        0.00000
 31
        3.04800
 12
        6.09600
 22
        0.00000
 32
        3.04800
 13
        6.09600
 23
        0.00000
 33
        3.96240
999
ATTIC ZONE:ZN004:WALL002
  0
3DFACE
  8
ATTIC_ZONE
 62
 43
 10
        6.09600
 20
        0.00000
 30
        3.96240
 11
        6.09600
 21
        0.00000
 31
        3.04800
 12
       12.19200
 22
        0.00000
 32
        3.04800
 13
       12.19200
 23
        0.00000
 33
        3.96240
999
ATTIC ZONE:ZN004:WALL003
  0
3DFACE
  8
ATTIC_ZONE
 62
 43
 10
       12.19200
 20
        0.00000
 30
        3.96240
 11
       12.19200
 21
        0.00000
 31
        3.04800
 12
       12.19200
 22
        6.09600
 32
        3.04800
 13
       12.19200
 23
        6.09600
 33
        3.96240
999
ATTIC ZONE:ZN004:WALL004
  0
3DFACE
  8
ATTIC_ZONE
 62
 43
 10
       12.19200
 20
        6.09600
 30
        3.96240
 11
       12.19200
 21
        6.09600
 31
        3.04800
 12
        9.14400
 22
        6.09600
 32
        3.04800
 13
        9.14400
 23
        6.09600
 33
        3.96240
999
ATTIC ZONE:ZN004:WALL005
  0
3DFACE
  8
ATTIC_ZONE
 62
 43
 10
        9.14400
 20
        6.09600
 30
        3.96240
 11
        9.14400
 21
        6.09600
 31
        3.04800
 12
        9.14400
 22
       12.19200
 32
        3.04800
 13
        9.14400
 23
       12.19200
 33
        3.96240
999
ATTIC ZONE:ZN004:WALL006
  0
3DFACE
  8
ATTIC_ZONE
 62
 43
 10
        9.14400
 20
       12.19200
 30
        3.96240
 11
        9.14400
 21
       12.19200
 31
        3.04800
 12
        0.00000
 22
       12.19200
 32
        3.04800
 13
        0.00000
 23
       12.19200
 33
        3.96240
999
ATTIC ZONE:ZN004:WALL007
  0
3DFACE
  8
ATTIC_ZONE
 62
 43
 10
        0.00000
 20
       12.19200
 30
        3.96240
 11
        0.00000
 21
       12.19200
 31
        3.04800
 12
        0.00000
 22
        6.09600
 32
        3.04800
 13
        0.00000
 23
        6.09600
 33
        3.96240
999
ATTIC ZONE:ZN004:WALL008
  0
3DFACE
  8
ATTIC_ZONE
 62
 43
 10
        0.00000
 20
        6.09600
 30
        3.96240
 11
        0.00000
 21
        6.09600
 31
        3.04800
 12
        0.00000
 22
        0.00000
 32
        3.04800
 13
        0.00000
 23
        0.00000
 33
        3.96240
999
ATTIC ZONE:ZN004:FLR001
  0
3DFACE
  8
ATTIC_ZONE
 62
  8
 10
        0.00000
 20
        0.00000
 30
        3.04800
 11
        0.00000
 21
        6.09600
 31
        3.04800
 12
        6.09600
 22
        6.09600
 32
        3.04800
 13
        6.09600
 23
        0.00000
 33
        3.04800
999
ATTIC ZONE:ZN004:FLR002
  0
3DFACE
  8
ATTIC_ZONE
 62
  8
 10
        6.09600
 20
        0.00000
 30
        3.04800
 11
        6.09600
 21
        6.09600
 31
        3.04800
 12
       12.19200
 22
        6.09600
 32
        3.04800
 13
       12.19200
 23
        0.00000
 33
        3.04800
999
ATTIC ZONE:ZN004:FLR003
  0
3DFACE
  8
ATTIC_ZONE
 62
  8
 10
        0.00000
 20
        6.09600
 30
        3.04800
 11
        0.00000
 21
       12.19200
 31
        3.04800
 12
        9.14400
 22
       12.19200
 32
        3.04800
 13
        9.14400
 23
        6.09600
 33
        3.04800
999
ATTIC ZONE:ZN004:ROOF001
  0
3DFACE
  8
ATTIC_ZONE
 62
 15
 10
        0.00000
 20
        6.09600
 30
        3.96240
 11
        0.00000
 21
        0.00000
 31
        3.96240
 12
        6.09600
 22
        0.00000
 32
        3.96240
 13
        6.09600
 23
        6.09600
 33
        3.96240
999
ATTIC ZONE:ZN004:ROOF002
  0
3DFACE
  8
ATTIC_ZONE
 62
 15
 10
        6.09600
 20
        6.09600
 30
        3.96240
 11
        6.09600
 21
        0.00000
 31
        3.96240
 12
       12.19200
 22
        0.00000
 32
        3.96240
 13
       12.19200
 23
        6.09600
 33
        3.96240
999
ATTIC ZONE:ZN004:ROOF003
  0
3DFACE
  8
ATTIC_ZONE
 62
 15
 10
        0.00000
 20
       12.19200
 30
        3.96240
 11
        0.00000
 21
        6.09600
 31
        3.96240
 12
        9.14400
 22
        6.09600
 32
        3.96240
 13
        9.14400
 23
       12.19200
 33
        3.96240
999
WEST ZONE:DayRefPt:WEST ZONE_DAYLREFPT1
  0
CIRCLE
  8
WEST_ZONE
 62
 10
 10
        3.04800
 20
        3.04800
 30
        0.90000
 40
        0.20000
  0
ENDSEC
  0
EOF
